# xmcd
#
# Track frame offsets: 
#        150
#        17663
#        30466
#        48574
#        63316
#        78506
#
# Disc length: 1206 seconds
#
# Revision: 0
# Processed by: cddbd v1.5.2PL0 Copyright (c) Steve Scherf et al.
# Submitted via: ExactAudioCopy v0.95b4
#
DISCID=4204b406
DTITLE=Larry Bagby - On the radio
DYEAR=2007
DGENRE=Country
TTITLE0=Counting my lucky stars
TTITLE1=On the radio
TTITLE2=Still
TTITLE3=Done giving love
TTITLE4=I'm alright tonight
TTITLE5=Player with a heart
EXTD=
EXTT0=
EXTT1=
EXTT2=
EXTT3=
EXTT4=
EXTT5=
PLAYORDER=
